<mxfile host="app.diagrams.net" agent="Mozilla/5.0 (Windows NT 10.0; Win64; x64) AppleWebKit/537.36 (KHTML, like Gecko) Chrome/131.0.0.0 Safari/537.36" version="26.0.4">
  <diagram name="第 1 页" id="VGbMVCijEyysrkUvCjCG">
    <mxGraphModel dx="2128" dy="915" grid="0" gridSize="10" guides="1" tooltips="1" connect="1" arrows="1" fold="1" page="0" pageScale="1" pageWidth="827" pageHeight="1169" math="0" shadow="0">
      <root>
        <mxCell id="0" />
        <mxCell id="1" parent="0" />
        <mxCell id="kF2-nZ4uGEHuJaE0uaNa-4" value="" style="rounded=0;whiteSpace=wrap;html=1;fillColor=#000000;" vertex="1" parent="1">
          <mxGeometry x="328" y="512" width="435" height="284" as="geometry" />
        </mxCell>
        <mxCell id="kF2-nZ4uGEHuJaE0uaNa-2" value="" style="verticalLabelPosition=middle;verticalAlign=middle;html=1;shape=trapezoid;perimeter=trapezoidPerimeter;whiteSpace=wrap;size=0.23;arcSize=10;flipV=1;labelPosition=center;align=center;fillColor=#60a917;fontColor=#ffffff;strokeColor=#2D7600;" vertex="1" parent="1">
          <mxGeometry x="328" y="512" width="435" height="233" as="geometry" />
        </mxCell>
        <mxCell id="kF2-nZ4uGEHuJaE0uaNa-3" value="" style="rounded=0;whiteSpace=wrap;html=1;fillColor=#60a917;fontColor=#ffffff;strokeColor=#2D7600;" vertex="1" parent="1">
          <mxGeometry x="328" y="452" width="435" height="60" as="geometry" />
        </mxCell>
        <mxCell id="kF2-nZ4uGEHuJaE0uaNa-5" value="" style="endArrow=classic;html=1;rounded=1;fillColor=#e51400;strokeColor=#B20000;entryX=0.232;entryY=0;entryDx=0;entryDy=0;entryPerimeter=0;curved=0;strokeWidth=4;" edge="1" parent="1" target="kF2-nZ4uGEHuJaE0uaNa-2">
          <mxGeometry width="50" height="50" relative="1" as="geometry">
            <mxPoint x="328" y="793" as="sourcePoint" />
            <mxPoint x="378" y="743" as="targetPoint" />
          </mxGeometry>
        </mxCell>
        <mxCell id="kF2-nZ4uGEHuJaE0uaNa-6" value="" style="endArrow=classic;html=1;rounded=1;fillColor=#e51400;strokeColor=#B20000;entryX=0.768;entryY=-0.003;entryDx=0;entryDy=0;entryPerimeter=0;curved=0;strokeWidth=4;" edge="1" parent="1" target="kF2-nZ4uGEHuJaE0uaNa-2">
          <mxGeometry width="50" height="50" relative="1" as="geometry">
            <mxPoint x="763" y="796" as="sourcePoint" />
            <mxPoint x="864" y="748" as="targetPoint" />
          </mxGeometry>
        </mxCell>
        <mxCell id="kF2-nZ4uGEHuJaE0uaNa-7" value="" style="endArrow=classic;html=1;rounded=1;fillColor=#e51400;strokeColor=#B20000;curved=0;strokeWidth=4;" edge="1" parent="1">
          <mxGeometry width="50" height="50" relative="1" as="geometry">
            <mxPoint x="553" y="796" as="sourcePoint" />
            <mxPoint x="553" y="746" as="targetPoint" />
          </mxGeometry>
        </mxCell>
        <mxCell id="kF2-nZ4uGEHuJaE0uaNa-8" value="" style="rounded=0;whiteSpace=wrap;html=1;fillColor=#0050ef;fontColor=#ffffff;strokeColor=#001DBC;" vertex="1" parent="1">
          <mxGeometry x="-218" y="512" width="435" height="284" as="geometry" />
        </mxCell>
        <mxCell id="kF2-nZ4uGEHuJaE0uaNa-9" value="" style="rounded=0;whiteSpace=wrap;html=1;fillColor=#000000;fontColor=#ffffff;strokeColor=#2D7600;" vertex="1" parent="1">
          <mxGeometry x="-218" y="452" width="435" height="60" as="geometry" />
        </mxCell>
        <mxCell id="kF2-nZ4uGEHuJaE0uaNa-10" value="" style="verticalLabelPosition=middle;verticalAlign=middle;html=1;shape=trapezoid;perimeter=trapezoidPerimeter;whiteSpace=wrap;size=0.23;arcSize=10;flipV=1;labelPosition=center;align=center;rotation=-180;fillColor=#0050ef;fontColor=#ffffff;strokeColor=#001DBC;" vertex="1" parent="1">
          <mxGeometry x="-218.5" y="459" width="434.5" height="53" as="geometry" />
        </mxCell>
        <mxCell id="kF2-nZ4uGEHuJaE0uaNa-11" value="" style="endArrow=classic;html=1;rounded=1;fillColor=#e51400;strokeColor=#B20000;curved=0;strokeWidth=4;entryX=0.778;entryY=0.069;entryDx=0;entryDy=0;entryPerimeter=0;" edge="1" parent="1" target="kF2-nZ4uGEHuJaE0uaNa-10">
          <mxGeometry width="50" height="50" relative="1" as="geometry">
            <mxPoint x="-218" y="454" as="sourcePoint" />
            <mxPoint x="-218" y="404" as="targetPoint" />
          </mxGeometry>
        </mxCell>
        <mxCell id="kF2-nZ4uGEHuJaE0uaNa-12" value="" style="endArrow=classic;html=1;rounded=1;fillColor=#e51400;strokeColor=#B20000;curved=0;strokeWidth=4;entryX=0.217;entryY=0.059;entryDx=0;entryDy=0;entryPerimeter=0;" edge="1" parent="1" target="kF2-nZ4uGEHuJaE0uaNa-10">
          <mxGeometry width="50" height="50" relative="1" as="geometry">
            <mxPoint x="218" y="453" as="sourcePoint" />
            <mxPoint x="171" y="483" as="targetPoint" />
          </mxGeometry>
        </mxCell>
        <mxCell id="kF2-nZ4uGEHuJaE0uaNa-13" value="" style="endArrow=classic;html=1;rounded=1;fillColor=#e51400;strokeColor=#B20000;curved=0;strokeWidth=4;" edge="1" parent="1">
          <mxGeometry width="50" height="50" relative="1" as="geometry">
            <mxPoint x="-168" y="736" as="sourcePoint" />
            <mxPoint x="-236" y="823" as="targetPoint" />
          </mxGeometry>
        </mxCell>
        <mxCell id="kF2-nZ4uGEHuJaE0uaNa-14" value="" style="endArrow=classic;html=1;rounded=1;fillColor=#e51400;strokeColor=#B20000;curved=0;strokeWidth=4;" edge="1" parent="1">
          <mxGeometry width="50" height="50" relative="1" as="geometry">
            <mxPoint x="170" y="742" as="sourcePoint" />
            <mxPoint x="233" y="820" as="targetPoint" />
          </mxGeometry>
        </mxCell>
        <mxCell id="kF2-nZ4uGEHuJaE0uaNa-21" value="Actor" style="shape=umlActor;verticalLabelPosition=bottom;verticalAlign=top;html=1;outlineConnect=0;" vertex="1" parent="1">
          <mxGeometry x="540" y="611" width="30" height="60" as="geometry" />
        </mxCell>
        <mxCell id="kF2-nZ4uGEHuJaE0uaNa-22" value="Actor" style="shape=umlActor;verticalLabelPosition=bottom;verticalAlign=top;html=1;outlineConnect=0;" vertex="1" parent="1">
          <mxGeometry x="-25" y="606" width="30" height="60" as="geometry" />
        </mxCell>
        <mxCell id="kF2-nZ4uGEHuJaE0uaNa-23" value="" style="rounded=0;whiteSpace=wrap;html=1;fillColor=#60a917;fontColor=#ffffff;strokeColor=#2D7600;" vertex="1" parent="1">
          <mxGeometry x="328" y="33" width="435" height="347" as="geometry" />
        </mxCell>
        <mxCell id="kF2-nZ4uGEHuJaE0uaNa-24" value="Actor" style="shape=umlActor;verticalLabelPosition=bottom;verticalAlign=top;html=1;outlineConnect=0;" vertex="1" parent="1">
          <mxGeometry x="544" y="295" width="30" height="60" as="geometry" />
        </mxCell>
        <mxCell id="kF2-nZ4uGEHuJaE0uaNa-25" value="" style="endArrow=classic;html=1;rounded=0;strokeWidth=6;" edge="1" parent="1">
          <mxGeometry width="50" height="50" relative="1" as="geometry">
            <mxPoint x="-239" y="375" as="sourcePoint" />
            <mxPoint x="-239" y="201" as="targetPoint" />
          </mxGeometry>
        </mxCell>
        <mxCell id="kF2-nZ4uGEHuJaE0uaNa-26" value="Camera Move Dir" style="text;html=1;align=center;verticalAlign=middle;resizable=0;points=[];autosize=1;strokeColor=none;fillColor=none;" vertex="1" parent="1">
          <mxGeometry x="-359" y="284" width="112" height="26" as="geometry" />
        </mxCell>
        <mxCell id="kF2-nZ4uGEHuJaE0uaNa-29" value="" style="rounded=0;whiteSpace=wrap;html=1;fillColor=#60a917;fontColor=#ffffff;strokeColor=#2D7600;" vertex="1" parent="1">
          <mxGeometry x="-219" y="30" width="435" height="347" as="geometry" />
        </mxCell>
        <mxCell id="kF2-nZ4uGEHuJaE0uaNa-30" value="Actor" style="shape=umlActor;verticalLabelPosition=bottom;verticalAlign=top;html=1;outlineConnect=0;" vertex="1" parent="1">
          <mxGeometry x="-38" y="36" width="30" height="60" as="geometry" />
        </mxCell>
        <mxCell id="kF2-nZ4uGEHuJaE0uaNa-31" value="N-1" style="text;html=1;align=center;verticalAlign=middle;resizable=0;points=[];autosize=1;strokeColor=none;fillColor=none;" vertex="1" parent="1">
          <mxGeometry x="-34.5" y="1" width="37" height="26" as="geometry" />
        </mxCell>
        <mxCell id="kF2-nZ4uGEHuJaE0uaNa-32" value="N" style="text;html=1;align=center;verticalAlign=middle;resizable=0;points=[];autosize=1;strokeColor=none;fillColor=none;" vertex="1" parent="1">
          <mxGeometry x="527" y="7" width="27" height="26" as="geometry" />
        </mxCell>
        <mxCell id="kF2-nZ4uGEHuJaE0uaNa-33" value="" style="html=1;shadow=0;dashed=0;align=center;verticalAlign=middle;shape=mxgraph.arrows2.arrow;dy=0.6;dx=40;direction=south;notch=0;fillColor=#d80073;fontColor=#ffffff;strokeColor=#A50040;" vertex="1" parent="1">
          <mxGeometry x="-45" y="378" width="70" height="74" as="geometry" />
        </mxCell>
        <mxCell id="kF2-nZ4uGEHuJaE0uaNa-34" value="" style="html=1;shadow=0;dashed=0;align=center;verticalAlign=middle;shape=mxgraph.arrows2.arrow;dy=0.6;dx=40;direction=south;notch=0;fillColor=#d80073;fontColor=#ffffff;strokeColor=#A50040;" vertex="1" parent="1">
          <mxGeometry x="524" y="380" width="70" height="74" as="geometry" />
        </mxCell>
        <mxCell id="kF2-nZ4uGEHuJaE0uaNa-35" value="Forward Interpolation" style="text;html=1;align=center;verticalAlign=middle;resizable=0;points=[];autosize=1;strokeColor=none;fillColor=none;" vertex="1" parent="1">
          <mxGeometry x="25" y="398" width="131" height="26" as="geometry" />
        </mxCell>
        <mxCell id="kF2-nZ4uGEHuJaE0uaNa-36" value="Backward Interpolation" style="text;html=1;align=center;verticalAlign=middle;resizable=0;points=[];autosize=1;strokeColor=none;fillColor=none;" vertex="1" parent="1">
          <mxGeometry x="598" y="402" width="140" height="26" as="geometry" />
        </mxCell>
        <mxCell id="kF2-nZ4uGEHuJaE0uaNa-52" style="edgeStyle=orthogonalEdgeStyle;rounded=0;orthogonalLoop=1;jettySize=auto;html=1;strokeWidth=2;" edge="1" parent="1" source="kF2-nZ4uGEHuJaE0uaNa-38">
          <mxGeometry relative="1" as="geometry">
            <mxPoint x="115" y="1089" as="targetPoint" />
          </mxGeometry>
        </mxCell>
        <mxCell id="kF2-nZ4uGEHuJaE0uaNa-38" value="Frame N" style="rounded=0;whiteSpace=wrap;html=1;fillColor=#0050ef;fontColor=#ffffff;strokeColor=#001DBC;" vertex="1" parent="1">
          <mxGeometry x="48" y="997" width="134" height="62" as="geometry" />
        </mxCell>
        <mxCell id="kF2-nZ4uGEHuJaE0uaNa-54" style="edgeStyle=orthogonalEdgeStyle;rounded=0;orthogonalLoop=1;jettySize=auto;html=1;strokeWidth=2;" edge="1" parent="1" source="kF2-nZ4uGEHuJaE0uaNa-39">
          <mxGeometry relative="1" as="geometry">
            <mxPoint x="450.5" y="1085.2988365436422" as="targetPoint" />
          </mxGeometry>
        </mxCell>
        <mxCell id="kF2-nZ4uGEHuJaE0uaNa-39" value="Frame N+1" style="rounded=0;whiteSpace=wrap;html=1;fillColor=#0050ef;fontColor=#ffffff;strokeColor=#001DBC;" vertex="1" parent="1">
          <mxGeometry x="385" y="997" width="131" height="60" as="geometry" />
        </mxCell>
        <mxCell id="kF2-nZ4uGEHuJaE0uaNa-41" value="Frame N-1" style="rounded=0;whiteSpace=wrap;html=1;fillColor=#0050ef;fontColor=#ffffff;strokeColor=#001DBC;" vertex="1" parent="1">
          <mxGeometry x="51" y="1109" width="131" height="60" as="geometry" />
        </mxCell>
        <mxCell id="kF2-nZ4uGEHuJaE0uaNa-42" value="Frame N-0.5" style="rounded=0;whiteSpace=wrap;html=1;fillColor=#60a917;fontColor=#ffffff;strokeColor=#2D7600;" vertex="1" parent="1">
          <mxGeometry x="243" y="1109" width="95" height="60" as="geometry" />
        </mxCell>
        <mxCell id="kF2-nZ4uGEHuJaE0uaNa-43" value="" style="endArrow=none;dashed=1;html=1;dashPattern=1 3;strokeWidth=2;rounded=0;" edge="1" parent="1">
          <mxGeometry width="50" height="50" relative="1" as="geometry">
            <mxPoint x="34" y="1183" as="sourcePoint" />
            <mxPoint x="34" y="997" as="targetPoint" />
          </mxGeometry>
        </mxCell>
        <mxCell id="kF2-nZ4uGEHuJaE0uaNa-44" value="" style="endArrow=none;dashed=1;html=1;dashPattern=1 3;strokeWidth=2;rounded=0;" edge="1" parent="1">
          <mxGeometry width="50" height="50" relative="1" as="geometry">
            <mxPoint x="369" y="1178" as="sourcePoint" />
            <mxPoint x="369" y="992" as="targetPoint" />
          </mxGeometry>
        </mxCell>
        <mxCell id="kF2-nZ4uGEHuJaE0uaNa-45" value="" style="endArrow=none;dashed=1;html=1;dashPattern=1 3;strokeWidth=2;rounded=0;" edge="1" parent="1">
          <mxGeometry width="50" height="50" relative="1" as="geometry">
            <mxPoint x="215.31" y="1183.5" as="sourcePoint" />
            <mxPoint x="215.31" y="1094.5" as="targetPoint" />
          </mxGeometry>
        </mxCell>
        <mxCell id="kF2-nZ4uGEHuJaE0uaNa-46" value="Frame N" style="rounded=0;whiteSpace=wrap;html=1;fillColor=#0050ef;fontColor=#ffffff;strokeColor=#001DBC;" vertex="1" parent="1">
          <mxGeometry x="385" y="1107" width="131" height="60" as="geometry" />
        </mxCell>
        <mxCell id="kF2-nZ4uGEHuJaE0uaNa-47" value="Frame N+0.5" style="rounded=0;whiteSpace=wrap;html=1;fillColor=#60a917;fontColor=#ffffff;strokeColor=#2D7600;" vertex="1" parent="1">
          <mxGeometry x="566" y="1109" width="95" height="60" as="geometry" />
        </mxCell>
        <mxCell id="kF2-nZ4uGEHuJaE0uaNa-48" value="" style="endArrow=none;dashed=1;html=1;dashPattern=1 3;strokeWidth=2;rounded=0;" edge="1" parent="1">
          <mxGeometry width="50" height="50" relative="1" as="geometry">
            <mxPoint x="687" y="1183" as="sourcePoint" />
            <mxPoint x="687" y="997" as="targetPoint" />
          </mxGeometry>
        </mxCell>
        <mxCell id="kF2-nZ4uGEHuJaE0uaNa-49" value="" style="endArrow=none;dashed=1;html=1;dashPattern=1 3;strokeWidth=2;rounded=0;" edge="1" parent="1">
          <mxGeometry width="50" height="50" relative="1" as="geometry">
            <mxPoint x="540.0799999999999" y="1181.5" as="sourcePoint" />
            <mxPoint x="540.0799999999999" y="1092.5" as="targetPoint" />
          </mxGeometry>
        </mxCell>
        <mxCell id="kF2-nZ4uGEHuJaE0uaNa-50" value="Frame N-1" style="rounded=0;whiteSpace=wrap;html=1;fillColor=#0050ef;fontColor=#ffffff;strokeColor=#001DBC;" vertex="1" parent="1">
          <mxGeometry x="-172" y="999" width="134" height="60" as="geometry" />
        </mxCell>
        <mxCell id="kF2-nZ4uGEHuJaE0uaNa-51" value="" style="endArrow=classic;html=1;rounded=0;exitX=0.5;exitY=1;exitDx=0;exitDy=0;strokeWidth=2;entryX=0.415;entryY=-0.019;entryDx=0;entryDy=0;entryPerimeter=0;" edge="1" parent="1" target="kF2-nZ4uGEHuJaE0uaNa-42">
          <mxGeometry width="50" height="50" relative="1" as="geometry">
            <mxPoint x="-107" y="1058.9999999999998" as="sourcePoint" />
            <mxPoint x="285" y="1109" as="targetPoint" />
            <Array as="points">
              <mxPoint x="-107" y="1089" />
              <mxPoint x="283" y="1089" />
            </Array>
          </mxGeometry>
        </mxCell>
        <mxCell id="kF2-nZ4uGEHuJaE0uaNa-53" value="" style="endArrow=classic;html=1;rounded=0;exitX=1;exitY=0.5;exitDx=0;exitDy=0;strokeWidth=2;entryX=0.415;entryY=-0.019;entryDx=0;entryDy=0;entryPerimeter=0;" edge="1" parent="1" source="kF2-nZ4uGEHuJaE0uaNa-38">
          <mxGeometry width="50" height="50" relative="1" as="geometry">
            <mxPoint x="227" y="1059.9999999999998" as="sourcePoint" />
            <mxPoint x="616" y="1109" as="targetPoint" />
            <Array as="points">
              <mxPoint x="227" y="1028" />
              <mxPoint x="227" y="1084" />
              <mxPoint x="616" y="1086" />
            </Array>
          </mxGeometry>
        </mxCell>
      </root>
    </mxGraphModel>
  </diagram>
</mxfile>
